{"title":"[cinebrazil.] 1975.Amadas.e.violentadas.TVRip.H264.MP3.mkv","uid":8911095,"size":1465539105,"categoryP":"video","categoryS":"movies","magnet":"?xt=urn:btih:99bf572dc9c97ee97f5d2f82c14a14cc86a34b4c&amp;dn=%5Bcinebrazil.%5D+1975.Amadas.e.violentadas.TVRip.H264.MP3.mkv&amp;tr=udp%3A%2F%2Ftracker.openbittorrent.com%3A80&amp;tr=udp%3A%2F%2Fopen.demonii.com%3A1337&amp;tr=udp%3A%2F%2Ftracker.coppersurfer.tk%3A6969&amp;tr=udp%3A%2F%2Fexodus.desync.com%3A6969","seeders":1,"leechers":0,"uploader":"sofilmes","files":1,"time":1379023255,"description":"Video\nID                                       : 1\nFormat                                   : AVC\nFormat/Info                              : Advanced Video Codec\nFormat profile                           : &lt;a class=&quot;__cf_email__&quot; href=&quot;/cdn-cgi/l/email-protection&quot; data-cfemail=&quot;e7aa868e89a7abd4c9d7&quot;&gt;[email&amp;#160;protected]&lt;/a&gt;&lt;script cf-hash='f9e31' type=&quot;text/javascript&quot;&gt;\n/* &lt;![CDATA[ */!function(){try{var t=&quot;currentScript&quot;in document?document.currentScript:function(){for(var t=document.getElementsByTagName(&quot;script&quot;),e=t.length;e--;)if(t[e].getAttribute(&quot;cf-hash&quot;))return t[e]}();if(t&amp;&amp;t.previousSibling){var e,r,n,i,c=t.previousSibling,a=c.getAttribute(&quot;data-cfemail&quot;);if(a){for(e=&quot;&quot;,r=parseInt(a.substr(0,2),16),n=2;a.length-n;n+=2)i=parseInt(a.substr(n,2),16)^r,e+=String.fromCharCode(i);e=document.createTextNode(e),c.parentNode.replaceChild(e,c)}}}catch(u){}}();/* ]]&gt; */&lt;/script&gt;\nFormat settings, CABAC                   : Yes\nFormat settings, ReFrames                : 2 frames\nCodec ID                                 : H264\nDuration                                 : 1h 39mn\nBit rate                                 : 1 773 Kbps\nWidth                                    : 624 pixels\nHeight                                   : 464 pixels\nDisplay aspect ratio                     : 4:3\nFrame rate                               : 23.976 fps\nColor space                              : YUV\nChroma subsampling                       : 4:2:0\nBit depth                                : 8 bits\nScan type                                : Progressive\nBits/(Pixel*Frame)                       : 0.255\nStream size                              : 1.20 GiB (88%)\nWriting library                          : x264 core 93 r1538bm bd72d46\n\nAudio\nID                                       : 2\nFormat                                   : MPEG Audio\nFormat version                           : Version 1\nFormat profile                           : Layer 3\nMode                                     : Joint stereo\nMode extension                           : MS Stereo\nCodec ID                                 : A_MPEG/L3\nCodec ID/Hint                            : MP3\nDuration                                 : 1h 39mn\nBit rate mode                            : Constant\nBit rate                                 : 192 Kbps\nChannel(s)                               : 2 channels\nSampling rate                            : 48.0 KHz\nCompression mode                         : Lossy\nStream size                              : 136 MiB (10%)\nWriting library                          : LAME3.97 ","torrent":{"xt":"urn:btih:99bf572dc9c97ee97f5d2f82c14a14cc86a34b4c","amp;dn":"%5Bcinebrazil.%5D+1975.Amadas.e.violentadas.TVRip.H264.MP3.mkv","amp;tr":["udp%3A%2F%2Ftracker.openbittorrent.com%3A80","udp%3A%2F%2Fopen.demonii.com%3A1337","udp%3A%2F%2Ftracker.coppersurfer.tk%3A6969","udp%3A%2F%2Fexodus.desync.com%3A6969"],"infoHash":"99bf572dc9c97ee97f5d2f82c14a14cc86a34b4c","infoHashBuffer":{"type":"Buffer","data":[153,191,87,45,201,201,126,233,127,93,47,130,193,74,20,204,134,163,75,76]},"announce":[],"urlList":[]}}